<svg width="2492" height="1159" viewBox="0 0 2492 1159" fill="none" xmlns="http://www.w3.org/2000/svg">
<path d="M466.943 658.179L294.952 680.371L274.147 602.005H195.087L177.749 680.371L0.90384 663.034L138.912 201.156L331.708 191.447L466.943 658.179ZM261.664 495.898L235.31 375.227L209.65 495.898H261.664ZM420.477 83.2593C392.968 98.2853 366.152 113.543 340.03 129.031C313.908 144.288 287.786 160.932 261.664 178.964L217.279 130.418C221.902 124.87 227.45 118.744 233.923 112.04C240.396 105.105 247.215 98.0542 254.382 90.8879C261.779 83.7216 269.408 76.5554 277.268 69.3891C285.127 61.9916 292.756 54.941 300.153 48.237C317.722 32.2863 336.1 16.22 355.287 0.038084L420.477 83.2593ZM904.547 512.542C904.547 538.664 904.201 564.555 903.507 590.215C903.045 615.644 902.236 641.304 901.08 667.195L701.349 663.727C708.284 622.81 714.294 582.009 719.38 541.323C724.466 500.406 727.009 459.142 727.009 417.531C727.009 414.526 726.893 409.671 726.662 402.967C726.431 396.263 725.969 388.75 725.275 380.428C724.582 371.875 723.541 363.206 722.154 354.422C720.998 345.406 719.265 337.2 716.953 329.802C714.872 322.405 712.214 316.394 708.978 311.771C705.972 306.916 702.274 304.489 697.881 304.489C690.022 304.489 683.318 306.801 677.77 311.424C672.453 316.047 667.945 322.058 664.246 329.455C660.779 336.622 658.005 344.713 655.924 353.728C653.844 362.744 652.225 371.759 651.069 380.775C650.145 389.791 649.451 398.344 648.989 406.435C648.758 414.295 648.642 420.767 648.642 425.853C647.486 466.77 646.562 507.456 645.868 547.911C645.175 588.135 644.25 628.82 643.094 669.969L466.249 677.597C470.872 595.994 475.265 514.854 479.426 434.175C483.818 353.497 487.286 272.356 489.828 190.753L653.497 182.431L652.11 237.912C658.582 230.052 665.518 222.655 672.915 215.72C680.544 208.785 688.635 202.89 697.188 198.035C705.741 192.949 714.757 189.02 724.235 186.246C733.944 183.24 744.115 181.738 754.749 181.738C774.399 181.738 791.621 184.974 806.416 191.447C821.211 197.92 833.925 206.704 844.559 217.8C855.193 228.896 864.093 242.073 871.259 257.33C878.425 272.356 884.204 288.423 888.597 305.529C892.989 322.636 896.341 340.551 898.653 359.276C900.964 377.77 902.467 396.032 903.16 414.064C904.085 432.095 904.547 449.548 904.547 466.424C904.547 483.299 904.547 498.672 904.547 512.542ZM1330.36 412.677C1330.36 445.04 1326.2 474.052 1317.88 499.712C1309.56 525.372 1297.88 548.142 1282.86 568.023C1268.06 587.672 1250.38 604.432 1229.8 618.302C1209.23 632.172 1186.69 643.615 1162.19 652.631C1137.68 661.415 1111.56 667.888 1083.82 672.049C1056.31 676.21 1027.99 678.291 998.865 678.291C988 678.291 977.366 678.06 966.963 677.597C956.561 676.904 945.927 675.979 935.062 674.823L944.771 223.348C970.2 215.257 996.322 209.594 1023.14 206.357C1050.18 202.89 1077 201.156 1103.58 201.156C1136.64 201.156 1167.04 205.779 1194.78 215.026C1222.52 224.273 1246.45 237.912 1266.56 255.943C1286.67 273.743 1302.28 295.82 1313.37 322.173C1324.7 348.296 1330.36 378.463 1330.36 412.677ZM1094.57 545.83C1108.44 543.75 1121.04 539.589 1132.37 533.347C1143.92 526.875 1153.86 519.015 1162.19 509.768C1170.51 500.29 1176.87 489.656 1181.26 477.866C1185.88 465.846 1188.19 453.131 1188.19 439.723C1188.19 426.547 1186.81 414.295 1184.03 402.967C1181.26 391.409 1176.75 381.469 1170.51 373.146C1164.27 364.593 1156.06 357.889 1145.89 353.035C1135.72 347.949 1123.23 345.175 1108.44 344.713L1094.57 545.83ZM1771.43 658.179L1599.44 680.371L1578.64 602.005H1499.58L1482.24 680.371L1305.4 663.034L1443.4 201.156L1636.2 191.447L1771.43 658.179ZM1566.16 495.898L1539.8 375.227L1514.14 495.898H1566.16ZM2082.82 504.22L2068.26 658.179L1776.29 681.065L1787.39 185.899H1967.7L1942.04 504.22H2082.82ZM2486.1 407.822C2486.1 427.934 2484.71 448.046 2481.94 468.157C2442.41 470.7 2403.11 474.861 2364.04 480.641C2324.97 486.189 2285.9 491.737 2246.84 497.285C2252.85 513.929 2262.21 527.221 2274.92 537.162C2287.87 547.102 2303.24 552.072 2321.04 552.072C2330.29 552.072 2340.34 550.338 2351.21 546.871C2362.31 543.403 2373.29 539.127 2384.15 534.041C2395.02 528.724 2405.42 523.06 2415.36 517.05C2425.3 511.039 2433.85 505.607 2441.02 500.752L2424.37 658.179C2415.36 665.114 2405.53 671.009 2394.9 675.864C2384.5 680.718 2373.63 684.648 2362.31 687.653C2350.98 690.658 2339.54 692.855 2327.98 694.242C2316.42 695.629 2305.09 696.322 2293.99 696.322C2271.11 696.322 2250.19 693.201 2231.23 686.96C2212.28 680.718 2195.05 672.049 2179.57 660.953C2164.31 649.626 2150.9 636.334 2139.34 621.076C2127.78 605.819 2118.19 589.175 2110.56 571.144C2102.93 553.112 2097.15 534.041 2093.22 513.929C2089.29 493.817 2087.33 473.474 2087.33 452.9C2087.33 431.401 2089.29 409.902 2093.22 388.404C2097.15 366.905 2103.05 346.215 2110.91 326.335C2119 306.454 2129.05 288.076 2141.08 271.2C2153.33 254.094 2167.54 239.183 2183.73 226.469C2199.91 213.755 2218.17 203.814 2238.51 196.648C2259.09 189.482 2281.74 185.899 2306.48 185.899C2327.05 185.899 2345.78 188.788 2362.65 194.568C2379.76 200.116 2394.9 207.975 2408.08 218.147C2421.48 228.087 2433.04 239.993 2442.75 253.863C2452.69 267.733 2460.78 282.99 2467.03 299.634C2473.5 316.047 2478.24 333.501 2481.24 351.994C2484.48 370.257 2486.1 388.866 2486.1 407.822ZM2347.39 389.791C2347.39 383.318 2346.7 376.73 2345.31 370.026C2343.93 363.091 2341.62 356.849 2338.38 351.301C2335.37 345.753 2331.33 341.245 2326.24 337.777C2321.16 334.079 2314.8 332.229 2307.17 332.229C2297.92 332.229 2289.72 334.772 2282.55 339.858C2275.62 344.713 2269.61 350.954 2264.52 358.583C2259.43 365.98 2255.27 374.071 2252.04 382.856C2248.8 391.64 2246.37 399.731 2244.76 407.128L2347.39 397.419V389.791Z" fill="#F90050"/>
<path d="M1479.86 938.054C1479.86 821.039 1574.72 726.18 1691.73 726.18H2369.7V946.727C2369.7 1063.74 2274.84 1158.6 2157.83 1158.6H1479.86V938.054Z" fill="#F90050"/>
<path d="M1893.55 807.333L1777.76 969.02L1772.28 1100.81H1672.49L1675.02 969.862L1614.81 813.649L1722.18 800.175L1739.02 891.124L1792.49 800.175L1893.55 807.333ZM2120.08 1074.29L2015.65 1087.76L2003.02 1040.18H1955.02L1944.5 1087.76L1837.13 1077.23L1920.92 796.807L2037.97 790.912L2120.08 1074.29ZM1995.44 975.757L1979.44 902.493L1963.86 975.757H1995.44ZM2230.61 779.543L2213.34 1001.02H2135.45L2127.45 779.543H2230.61ZM2216.71 1065.86C2216.71 1072.04 2215.52 1077.79 2213.13 1083.13C2210.75 1088.46 2207.52 1093.09 2203.45 1097.02C2199.52 1101.09 2194.89 1104.25 2189.55 1106.5C2184.22 1108.88 2178.53 1110.08 2172.5 1110.08C2166.32 1110.08 2160.57 1108.88 2155.24 1106.5C2149.9 1104.25 2145.2 1101.09 2141.13 1097.02C2137.2 1093.09 2134.04 1088.46 2131.66 1083.13C2129.41 1077.79 2128.29 1072.04 2128.29 1065.86C2128.29 1059.83 2129.41 1054.07 2131.66 1048.6C2134.04 1043.13 2137.2 1038.42 2141.13 1034.49C2145.2 1030.42 2149.9 1027.2 2155.24 1024.81C2160.57 1022.42 2166.32 1021.23 2172.5 1021.23C2178.53 1021.23 2184.22 1022.42 2189.55 1024.81C2194.89 1027.2 2199.52 1030.42 2203.45 1034.49C2207.52 1038.42 2210.75 1043.13 2213.13 1048.6C2215.52 1054.07 2216.71 1059.83 2216.71 1065.86Z" fill="white"/>
</svg>
